<?xml version="1.0"?>
<svg xmlns="http://www.w3.org/2000/svg" viewBox="0 0 32 32">
    <path d="M 12 5 L 12 7 C 13.451689 7 14.282588 7.5088161 14.6875 8.09375 C 10.433356 8.6486451 6.9941925 11.875329 6.1875 16.125 C 4.9305 16.482 4 17.63 4 19 C 4 20.354 4.9065 21.507 6.1875 21.875 C 7.2395 27.005 12.684 27 16 27 C 19.313 27 24.7525 26.987 25.8125 21.875 C 27.0725 21.52 28 20.373 28 19 C 28 17.63 27.0695 16.482 25.8125 16.125 C 25.068147 12.203735 22.081718 9.1336969 18.28125 8.25 C 18.429668 8.108671 18.664459 8 19 8 L 19 6 C 17.755588 6 16.988316 6.5960613 16.53125 7.3125 C 15.816684 6.0315902 14.286159 5 12 5 z M 27.375 7.03125 C 27.088553 7.0584258 26.81975 7.169375 26.5625 7.34375 C 25.2655 8.22175 25 11 25 11 C 25.941 9.809 27.7945 10.17925 28.4375 9.65625 C 29.0805 9.13325 29.17925 8.2055 28.65625 7.5625 C 28.329375 7.160625 27.852412 6.985957 27.375 7.03125 z M 4.34375 8.03125 C 3.967375 8.0635 3.60525 8.241 3.34375 8.5625 C 2.82075 9.2055 2.9195 10.13325 3.5625 10.65625 C 4.2055 11.17925 6.059 10.809 7 12 C 7 12 6.7345 9.22175 5.4375 8.34375 C 5.0945 8.11125 4.720125 7.999 4.34375 8.03125 z M 16 10 C 20.085 10 23.4915 13.069 23.9375 17.125 L 24.0625 18.03125 L 25.0625 18 C 25.5905 18.026 26 18.465 26 19 C 26 19.535 25.5915 19.974 25.0625 20 L 24.0625 19.96875 L 23.9375 20.875 C 23.5545 24.354 20.972 25 16 25 C 11.028 25 8.4455 24.354 8.0625 20.875 L 7.9375 19.96875 L 6.9375 20 C 6.4095 19.974 6 19.535 6 19 C 6 18.465 6.4085 18.026 6.9375 18 L 7.9375 18.03125 L 8.0625 17.125 C 8.5085 13.069 11.915 10 16 10 z M 14.96875 13 C 14.84675 13.004 11.96475 13.106 10.21875 15.375 L 11.78125 16.625 C 12.94225 15.118 15.01125 15 15.03125 15 L 14.96875 13 z M 17.03125 13 L 16.96875 15 C 16.98875 15 19.05775 15.118 20.21875 16.625 L 21.78125 15.375 C 20.03525 13.106 17.15325 13.004 17.03125 13 z M 16 17 C 12.31 17 11 19.693 11 22 L 11 23 L 21 23 L 21 22 C 21 19.693 19.69 17 16 17 z M 16 19 C 17.92 19 18.63 20.017 18.875 21 L 13.125 21 C 13.37 20.017 14.08 19 16 19 z"/>
</svg>
